# xmcd CD database file
#
# Track frame offsets:
#	150
#	18845
#	43967
#	64350
#	81332
#	103007
#	123493
#	127586
#	151175
#	170557
#	190035
#	208080
#
# Disc length: 3129 seconds
#
# Revision: 0
# Processed by: cddbd v1.4PL0 Copyright (c) Steve Scherf et al.
# Submitted via: CDex 1.51
#
DISCID=9f0c370c
DTITLE=James Vargas - James Vargas
DYEAR=2003
DGENRE=Jazz
TTITLE0=Curtain  call
TTITLE1=Say you will
TTITLE2=Sitting pretty
TTITLE3=Whenever wherever whatever 
TTITLE4=Wont be a fool
TTITLE5=Push da button
TTITLE6=Prelude
TTITLE7=Lasting impression
TTITLE8=Galveston bay
TTITLE9=One fine day
TTITLE10=Port meadow
TTITLE11=Speakeasy
EXTD=YEAR: 2003
EXTT0=
EXTT1=
EXTT2=
EXTT3=
EXTT4=
EXTT5=
EXTT6=
EXTT7=
EXTT8=
EXTT9=
EXTT10=
EXTT11=
PLAYORDER=
